<svg xmlns="http://www.w3.org/2000/svg" width="136" height="41" viewBox="0 0 136 41">
  <g id="btn_appgallery_white.svg" transform="translate(0.5 0.5)">
    <path id="Trazado_8928" data-name="Trazado 8928" d="M476.894,40h-125a5.015,5.015,0,0,1-5-5V5a5.015,5.015,0,0,1,5-5h125a5.015,5.015,0,0,1,5,5V35a5.015,5.015,0,0,1-5,5" transform="translate(-346.894)" stroke="#a6a6a6" stroke-width="1"/>
    <path id="Trazado_8982" data-name="Trazado 8982" d="M392.088,25.776l-2.154-5.821-2.145,5.821Zm-7.51,4.319,4.466-11.7h1.79l4.466,11.7h-1.649l-1.068-3h-5.269l-1.067,3Zm13.756-1.315v4.654h-1.442V21.317h1.442v1.325a2.982,2.982,0,0,1,1.147-1.158,3.4,3.4,0,0,1,1.66-.384,3.148,3.148,0,0,1,2.6,1.274,5.2,5.2,0,0,1,1.007,3.342,5.237,5.237,0,0,1-1.007,3.342,3.158,3.158,0,0,1-2.6,1.265,3.465,3.465,0,0,1-1.66-.375,3.081,3.081,0,0,1-1.147-1.168m4.911-3.064a4.173,4.173,0,0,0-.662-2.5,2.072,2.072,0,0,0-1.79-.91,2.126,2.126,0,0,0-1.81.91,4.216,4.216,0,0,0-.652,2.5,4.212,4.212,0,0,0,.652,2.5,2.129,2.129,0,0,0,1.81.9,2.081,2.081,0,0,0,1.79-.9,4.169,4.169,0,0,0,.662-2.5m5.289,3.064v4.654h-1.452V21.317h1.452v1.325a3,3,0,0,1,1.137-1.158,3.42,3.42,0,0,1,1.67-.384,3.139,3.139,0,0,1,2.589,1.274,5.2,5.2,0,0,1,1.007,3.342,5.237,5.237,0,0,1-1.007,3.342,3.149,3.149,0,0,1-2.589,1.265,3.487,3.487,0,0,1-1.67-.375,3.08,3.08,0,0,1-1.137-1.168m4.9-3.064a4.166,4.166,0,0,0-.663-2.5,2.069,2.069,0,0,0-1.789-.91,2.125,2.125,0,0,0-1.81.91,4.268,4.268,0,0,0-.642,2.5,4.264,4.264,0,0,0,.642,2.5,2.127,2.127,0,0,0,1.81.9,2.079,2.079,0,0,0,1.789-.9,4.162,4.162,0,0,0,.663-2.5m11.879,2.71V25.285h-2.579V23.98h4.151v5.031a6.953,6.953,0,0,1-2.027.987,8.2,8.2,0,0,1-2.352.325,5.7,5.7,0,0,1-4.3-1.6,6.177,6.177,0,0,1-1.543-4.466,6.177,6.177,0,0,1,1.543-4.466,5.687,5.687,0,0,1,4.3-1.612,8.008,8.008,0,0,1,2.165.287,6.783,6.783,0,0,1,1.907.83v1.689a6.341,6.341,0,0,0-1.867-1.127,5.783,5.783,0,0,0-2.074-.375,4.157,4.157,0,0,0-3.232,1.195,5.247,5.247,0,0,0-1.067,3.576,5.207,5.207,0,0,0,1.067,3.566,4.156,4.156,0,0,0,3.232,1.194,7.568,7.568,0,0,0,1.5-.137,3.956,3.956,0,0,0,1.174-.448m9.775-2.75h-1.432a5.076,5.076,0,0,0-2.422.4,1.453,1.453,0,0,0-.672,1.365,1.555,1.555,0,0,0,.505,1.224,1.994,1.994,0,0,0,1.375.445,2.4,2.4,0,0,0,1.927-.85A3.374,3.374,0,0,0,435.092,26v-.324Zm1.442-.592v5.011h-1.442V28.76a3.194,3.194,0,0,1-1.224,1.188,3.968,3.968,0,0,1-1.81.375,3,3,0,0,1-2.144-.753,2.693,2.693,0,0,1-.79-2.037,2.649,2.649,0,0,1,.987-2.235,4.882,4.882,0,0,1,2.964-.753h2.017v-.137a1.892,1.892,0,0,0-.652-1.542,2.8,2.8,0,0,0-1.837-.542,6.077,6.077,0,0,0-1.462.177,5.736,5.736,0,0,0-1.375.542V21.708a9.473,9.473,0,0,1,1.543-.455,6.787,6.787,0,0,1,1.441-.157,3.751,3.751,0,0,1,2.847.987,4.234,4.234,0,0,1,.937,3m2.974-7.183h1.442V30.095h-1.442Zm4.459,0h1.442V30.095h-1.442Zm11.926,7.44v.713h-6.63a3.342,3.342,0,0,0,.89,2.271,3.111,3.111,0,0,0,2.245.77,6.527,6.527,0,0,0,1.6-.2,7.087,7.087,0,0,0,1.552-.613V29.65a9.013,9.013,0,0,1-1.592.505,8.172,8.172,0,0,1-1.649.168,4.524,4.524,0,0,1-3.332-1.225,4.437,4.437,0,0,1-1.225-3.3,4.818,4.818,0,0,1,1.168-3.419A4.051,4.051,0,0,1,452.06,21.1a3.561,3.561,0,0,1,2.8,1.147,4.416,4.416,0,0,1,1.033,3.091m-6.59-.414h5.149a2.775,2.775,0,0,0-.673-1.9,2.2,2.2,0,0,0-1.709-.7,2.727,2.727,0,0,0-1.937.683,2.881,2.881,0,0,0-.83,1.917m13.984-3.747.01,1.482a2.025,2.025,0,0,0-.536-.208,2.669,2.669,0,0,0-.622-.07,2.317,2.317,0,0,0-1.887.8,3.5,3.5,0,0,0-.652,2.281v4.627h-1.442V21.317H459.6v1.365a2.939,2.939,0,0,1,1.188-1.188,3.669,3.669,0,0,1,1.769-.394,2.107,2.107,0,0,1,.335.03,3.023,3.023,0,0,1,.395.05m9.032.137-3.854,9.588a5.265,5.265,0,0,1-1.194,2.054,2.375,2.375,0,0,1-1.552.475h-1.158v-1.2h.85a1.4,1.4,0,0,0,.93-.287,3.544,3.544,0,0,0,.722-1.335l.268-.652-3.559-8.638H465.3l2.746,6.858,2.737-6.858Z" transform="translate(-346.894)" fill="#fff"/>
    <path id="Trazado_8983" data-name="Trazado 8983" d="M374.151,8.264H363.4c-5.071,0-6.928,1.847-6.928,6.918V25.934c0,5.072,1.857,6.927,6.928,6.927h10.752c5.061,0,6.918-1.855,6.918-6.927V15.182c0-5.071-1.846-6.918-6.918-6.918" transform="translate(-346.894)" fill="#ce0e2d"/>
    <path id="Trazado_8984" data-name="Trazado 8984" d="M366.969,23.106l-.3.663h-.663l1.412-3.212h.572l1.412,3.212h-.683l-.287-.663Zm.234-.582h.987l-.5-1.147Zm10.477-1.967h.652v3.212h-.652Zm-2.559,2.63h1.79v.582h-2.432V20.557h2.362v.592h-1.72V21.8h1.188v.592h-1.188Zm-1.85-2.63h.683l-1.118,3.222h-.552l-.732-2.114-.733,2.114h-.535l-1.128-3.222h.7l.712,2.215.723-2.215h.535l.733,2.215Zm-8.249,0h.652v1.82a1.3,1.3,0,0,1-1.4,1.452A1.281,1.281,0,0,1,362.9,22.4V20.561h.652v1.82c0,.541.258.829.733.829s.733-.288.733-.809Zm-3.677,0H362v3.222h-.652V22.464h-1.472v1.315h-.652V20.557h.652v1.3h1.472Zm7.43-4.091a4.091,4.091,0,0,1-4.091-4.091h.572a3.519,3.519,0,0,0,7.038,0h.572a4.1,4.1,0,0,1-4.091,4.091" transform="translate(-346.894)" fill="#fff" fill-rule="evenodd"/>
    <path id="Trazado_8985" data-name="Trazado 8985" d="M384.832,13.612V8.573h3.219v.69h-2.488v1.413h2.068v.69h-2.068v1.557h2.488v.689Z" transform="translate(-346.894)" fill="#fff"/>
    <path id="Trazado_8986" data-name="Trazado 8986" d="M388.471,13.612l1.718-2.551-1.673-2.488h.9l1.228,1.869,1.222-1.869h.9l-1.673,2.488,1.715,2.551h-.9l-1.267-1.928-1.27,1.928Z" transform="translate(-346.894)" fill="#fff"/>
    <path id="Trazado_8987" data-name="Trazado 8987" d="M393.363,13.612V8.573H395.4c.049,0,.11,0,.182.005a1.679,1.679,0,0,1,.207.023,1.5,1.5,0,0,1,.7.287,1.361,1.361,0,0,1,.422.556,2.044,2.044,0,0,1,0,1.487,1.364,1.364,0,0,1-.422.557,1.505,1.505,0,0,1-.7.287c-.066.009-.135.016-.209.021s-.133.007-.18.007h-1.3v1.809Zm.731-2.5h1.277c.047,0,.1,0,.156-.007a1.182,1.182,0,0,0,.163-.025.708.708,0,0,0,.36-.194.83.83,0,0,0,.2-.327,1.2,1.2,0,0,0,.06-.371,1.178,1.178,0,0,0-.06-.369.848.848,0,0,0-.2-.326.715.715,0,0,0-.36-.194.94.94,0,0,0-.163-.028c-.057,0-.109-.007-.156-.007h-1.277Z" transform="translate(-346.894)" fill="#fff"/>
    <path id="Trazado_8988" data-name="Trazado 8988" d="M397.821,13.612V8.573h.731v4.35h2.282v.689Z" transform="translate(-346.894)" fill="#fff"/>
    <path id="Trazado_8989" data-name="Trazado 8989" d="M403.391,13.716a2.4,2.4,0,0,1-1.288-.33,2.152,2.152,0,0,1-.813-.922,3.154,3.154,0,0,1-.282-1.372,3.157,3.157,0,0,1,.282-1.372A2.152,2.152,0,0,1,402.1,8.8a2.675,2.675,0,0,1,2.574,0,2.127,2.127,0,0,1,.813.922,3.171,3.171,0,0,1,.28,1.372,3.168,3.168,0,0,1-.28,1.372,2.127,2.127,0,0,1-.813.922,2.4,2.4,0,0,1-1.286.33m0-.7a1.5,1.5,0,0,0,.89-.236,1.473,1.473,0,0,0,.534-.679,2.656,2.656,0,0,0,.179-1.013,2.628,2.628,0,0,0-.179-1.009,1.465,1.465,0,0,0-.534-.674,1.561,1.561,0,0,0-.89-.245,1.506,1.506,0,0,0-.89.235,1.46,1.46,0,0,0-.534.678,2.711,2.711,0,0,0-.182,1.015,2.6,2.6,0,0,0,.175,1.01,1.46,1.46,0,0,0,.537.673,1.582,1.582,0,0,0,.894.245" transform="translate(-346.894)" fill="#fff"/>
    <path id="Trazado_8990" data-name="Trazado 8990" d="M406.471,13.612V8.573h2.036c.049,0,.11,0,.182.005a1.68,1.68,0,0,1,.207.023,1.505,1.505,0,0,1,.7.287,1.363,1.363,0,0,1,.422.557,1.915,1.915,0,0,1,.14.741,1.752,1.752,0,0,1-.308,1.038,1.363,1.363,0,0,1-.924.544l-.3.035H407.2v1.809Zm.731-2.5h1.277c.047,0,.1,0,.156-.007a1.359,1.359,0,0,0,.163-.024.715.715,0,0,0,.36-.194.841.841,0,0,0,.2-.328,1.171,1.171,0,0,0,0-.74.837.837,0,0,0-.2-.325.708.708,0,0,0-.36-.194.854.854,0,0,0-.163-.028c-.057-.005-.109-.007-.156-.007H407.2Zm2.215,2.5-.994-2.05.739-.189,1.091,2.239Z" transform="translate(-346.894)" fill="#fff"/>
    <path id="Trazado_8991" data-name="Trazado 8991" d="M410.673,13.612l1.637-5.039h1.054L415,13.612h-.759l-1.508-4.6h.189l-1.491,4.6Zm.85-1.823h2.631v.686h-2.631Z" transform="translate(-346.894)" fill="#fff"/>
    <path id="Trazado_8992" data-name="Trazado 8992" d="M415.7,13.612V8.573h.731v4.35h2.282v.689Z" transform="translate(-346.894)" fill="#fff"/>
    <path id="Trazado_8993" data-name="Trazado 8993" d="M421.272,13.716a2.4,2.4,0,0,1-1.288-.33,2.153,2.153,0,0,1-.813-.922,3.154,3.154,0,0,1-.282-1.372,3.157,3.157,0,0,1,.282-1.372,2.153,2.153,0,0,1,.813-.922,2.675,2.675,0,0,1,2.574,0,2.127,2.127,0,0,1,.813.922,3.171,3.171,0,0,1,.28,1.372,3.168,3.168,0,0,1-.28,1.372,2.127,2.127,0,0,1-.813.922,2.4,2.4,0,0,1-1.286.33m0-.7a1.5,1.5,0,0,0,.89-.236,1.474,1.474,0,0,0,.534-.679,2.656,2.656,0,0,0,.179-1.013,2.628,2.628,0,0,0-.179-1.009,1.465,1.465,0,0,0-.534-.674,1.561,1.561,0,0,0-.89-.245,1.512,1.512,0,0,0-.891.235,1.465,1.465,0,0,0-.533.678,2.712,2.712,0,0,0-.182,1.015,2.6,2.6,0,0,0,.175,1.01,1.46,1.46,0,0,0,.537.673,1.582,1.582,0,0,0,.894.245" transform="translate(-346.894)" fill="#fff"/>
    <path id="Trazado_8994" data-name="Trazado 8994" d="M425.75,13.612V8.573h3.219v.69h-2.488v1.413h2.068v.69h-2.068v1.557h2.488v.689Z" transform="translate(-346.894)" fill="#fff"/>
    <path id="Trazado_8995" data-name="Trazado 8995" d="M429.809,13.612V8.573h.742l2.481,3.744V8.573h.741v5.039h-.741l-2.481-3.748v3.748Z" transform="translate(-346.894)" fill="#fff"/>
    <path id="Trazado_8996" data-name="Trazado 8996" d="M402.976,7.838l.928-1.272h.932L403.8,7.838Z" transform="translate(-346.894)" fill="#fff"/>
  </g>
</svg>
