<svg xmlns="http://www.w3.org/2000/svg" width="136" height="41" viewBox="0 0 136 41">
  <g id="Grupo_204273.svg" data-name="Grupo%204273.svg" transform="translate(0.5 0.5)">
    <path id="Trazado_8959" data-name="Trazado 8959" d="M303.277,40h-125a5.015,5.015,0,0,1-5-5V5a5.015,5.015,0,0,1,5-5h125a5.015,5.015,0,0,1,5,5V35a5.015,5.015,0,0,1-5,5" transform="translate(-173.277)" stroke="#a6a6a6" stroke-width="1"/>
    <path id="Trazado_8960" data-name="Trazado 8960" d="M201.992,19.492a5.545,5.545,0,0,1,2.641-4.653,5.678,5.678,0,0,0-4.473-2.418c-1.882-.2-3.706,1.126-4.665,1.126-.978,0-2.454-1.106-4.044-1.074a5.958,5.958,0,0,0-5.013,3.057c-2.167,3.753-.55,9.268,1.526,12.3,1.039,1.485,2.253,3.144,3.841,3.085,1.554-.064,2.135-.991,4.011-.991,1.859,0,2.4.991,4.025.954,1.668-.027,2.719-1.492,3.721-2.991a12.272,12.272,0,0,0,1.7-3.466,5.358,5.358,0,0,1-3.271-4.93" transform="translate(-173.277)" fill="#fff"/>
    <path id="Trazado_8961" data-name="Trazado 8961" d="M198.931,10.426a5.461,5.461,0,0,0,1.249-3.912,5.558,5.558,0,0,0-3.595,1.86,5.194,5.194,0,0,0-1.281,3.767,4.592,4.592,0,0,0,3.627-1.715" transform="translate(-173.277)" fill="#fff"/>
    <path id="Trazado_8962" data-name="Trazado 8962" d="M221.641,27.156h-5.3l-1.274,3.761h-2.247L217.84,17h2.335L225.2,30.917h-2.285Zm-4.755-1.736h4.205l-2.073-6.1h-.058Z" transform="translate(-173.277)" fill="#fff"/>
    <path id="Trazado_8963" data-name="Trazado 8963" d="M236.051,25.845c0,3.153-1.688,5.179-4.235,5.179a3.44,3.44,0,0,1-3.192-1.775h-.048v5.025h-2.083v-13.5h2.016v1.688h.038a3.6,3.6,0,0,1,3.231-1.794c2.575,0,4.273,2.036,4.273,5.18m-2.141,0c0-2.054-1.062-3.4-2.681-3.4-1.592,0-2.662,1.379-2.662,3.4,0,2.044,1.07,3.413,2.662,3.413,1.619,0,2.681-1.34,2.681-3.413" transform="translate(-173.277)" fill="#fff"/>
    <path id="Trazado_8964" data-name="Trazado 8964" d="M247.218,25.845c0,3.153-1.688,5.179-4.235,5.179a3.44,3.44,0,0,1-3.192-1.775h-.048v5.025H237.66v-13.5h2.016v1.688h.038a3.6,3.6,0,0,1,3.231-1.794c2.575,0,4.273,2.036,4.273,5.18m-2.141,0c0-2.054-1.062-3.4-2.681-3.4-1.592,0-2.662,1.379-2.662,3.4,0,2.044,1.07,3.413,2.662,3.413C244.015,29.258,245.077,27.918,245.077,25.845Z" transform="translate(-173.277)" fill="#fff"/>
    <path id="Trazado_8965" data-name="Trazado 8965" d="M254.6,27.04c.154,1.38,1.495,2.286,3.327,2.286,1.755,0,3.018-.906,3.018-2.15,0-1.081-.761-1.727-2.565-2.171l-1.8-.434c-2.556-.617-3.742-1.812-3.742-3.752,0-2.4,2.092-4.05,5.064-4.05,2.94,0,4.956,1.649,5.024,4.05h-2.1c-.126-1.388-1.274-2.227-2.952-2.227s-2.826.848-2.826,2.083c0,.984.733,1.563,2.527,2.006l1.533.376c2.856.676,4.042,1.823,4.042,3.858,0,2.6-2.074,4.234-5.372,4.234-3.087,0-5.17-1.592-5.3-4.109Z" transform="translate(-173.277)" fill="#fff"/>
    <path id="Trazado_8966" data-name="Trazado 8966" d="M267.638,18.37v2.4h1.929V22.42h-1.929v5.594c0,.869.386,1.274,1.234,1.274a6.551,6.551,0,0,0,.686-.048v1.639a5.758,5.758,0,0,1-1.157.1c-2.054,0-2.855-.771-2.855-2.739V22.42H264.07V20.771h1.476v-2.4Z" transform="translate(-173.277)" fill="#fff"/>
    <path id="Trazado_8967" data-name="Trazado 8967" d="M270.685,25.845c0-3.192,1.88-5.2,4.812-5.2s4.813,2.006,4.813,5.2-1.862,5.2-4.813,5.2-4.812-2-4.812-5.2m7.5,0c0-2.19-1-3.482-2.691-3.482s-2.69,1.3-2.69,3.482c0,2.2,1,3.481,2.69,3.481S278.188,28.044,278.188,25.845Z" transform="translate(-173.277)" fill="#fff"/>
    <path id="Trazado_8968" data-name="Trazado 8968" d="M282.027,20.771h1.986V22.5h.049a2.419,2.419,0,0,1,2.44-1.833,3.181,3.181,0,0,1,.714.078v1.948a2.88,2.88,0,0,0-.936-.126,2.1,2.1,0,0,0-2.182,2.012,1.927,1.927,0,0,0,.012.322v6.018h-2.083Z" transform="translate(-173.277)" fill="#fff"/>
    <path id="Trazado_8969" data-name="Trazado 8969" d="M296.818,27.937c-.28,1.842-2.074,3.106-4.369,3.106-2.951,0-4.783-1.977-4.783-5.15s1.842-5.247,4.7-5.247c2.807,0,4.572,1.929,4.572,5v.714h-7.166v.125a2.643,2.643,0,0,0,2.4,2.866,2.609,2.609,0,0,0,.331.008,2.3,2.3,0,0,0,2.343-1.427Zm-7.04-3.028h5.073a2.441,2.441,0,0,0-2.3-2.572c-.063,0-.125,0-.188,0a2.569,2.569,0,0,0-2.584,2.553v.022" transform="translate(-173.277)" fill="#fff"/>
    <path id="Trazado_8970" data-name="Trazado 8970" d="M213.938,9.871c0-2.169,1.153-3.508,3.011-3.508A2.672,2.672,0,0,1,219.73,8.68H218.7a1.72,1.72,0,0,0-1.746-1.349c-1.2,0-1.952.978-1.952,2.54s.751,2.535,1.956,2.535a1.675,1.675,0,0,0,1.742-1.233h1.035a2.61,2.61,0,0,1-2.777,2.2c-1.858,0-3.015-1.339-3.015-3.5" transform="translate(-173.277)" fill="#fff"/>
    <path id="Trazado_8971" data-name="Trazado 8971" d="M220.866,10.687a2.39,2.39,0,0,1,4.759-.455,2.306,2.306,0,0,1,0,.455,2.391,2.391,0,1,1-4.759,0m3.735,0c0-1.094-.491-1.734-1.354-1.734s-1.352.64-1.352,1.734.487,1.737,1.352,1.737,1.354-.639,1.354-1.737" transform="translate(-173.277)" fill="#fff"/>
    <path id="Trazado_8972" data-name="Trazado 8972" d="M226.962,8.166h.959v.8h.074a1.509,1.509,0,0,1,1.506-.9,1.641,1.641,0,0,1,1.76,1.513,1.7,1.7,0,0,1-.013.363v3.267h-1V10.2c0-.811-.353-1.215-1.089-1.215a1.159,1.159,0,0,0-1.205,1.279v2.952h-1Z" transform="translate(-173.277)" fill="#fff"/>
    <path id="Trazado_8973" data-name="Trazado 8973" d="M234.633,8.069c1.135,0,1.877.528,1.974,1.418h-.955c-.092-.371-.454-.607-1.019-.607s-.978.264-.978.658c0,.3.255.491.8.616l.838.195c.96.222,1.41.635,1.41,1.376,0,.95-.886,1.585-2.091,1.585s-1.983-.542-2.071-1.436h1a1.024,1.024,0,0,0,1.1.63c.621,0,1.062-.278,1.062-.682,0-.3-.236-.5-.742-.616l-.88-.2c-.96-.227-1.4-.658-1.4-1.409,0-.894.82-1.524,1.96-1.524" transform="translate(-173.277)" fill="#fff"/>
    <path id="Trazado_8974" data-name="Trazado 8974" d="M237.962,7.322l1.163-1.594h1.168l-1.3,1.594Zm.1.844h.992v5.046h-.992Z" transform="translate(-173.277)" fill="#fff"/>
    <path id="Trazado_8975" data-name="Trazado 8975" d="M240.607,13.717h1.019c.084.366.5.6,1.177.6.83,0,1.321-.394,1.321-1.061V12.29h-.074a1.7,1.7,0,0,1-1.557.848c-1.288,0-2.085-1-2.085-2.507,0-1.539.8-2.549,2.094-2.549a1.747,1.747,0,0,1,1.585.89h.079V8.166h.954v5.088c0,1.154-.9,1.886-2.331,1.886-1.261,0-2.076-.565-2.182-1.423m3.536-3.091c0-1.005-.52-1.649-1.368-1.649s-1.338.644-1.338,1.649.481,1.65,1.338,1.65,1.368-.639,1.368-1.65" transform="translate(-173.277)" fill="#fff"/>
    <path id="Trazado_8976" data-name="Trazado 8976" d="M250.962,13.212H250v-.8h-.079a1.51,1.51,0,0,1-1.524.9,1.638,1.638,0,0,1-1.751-1.517,1.694,1.694,0,0,1,.012-.349V8.167h1v3.016c0,.816.328,1.2,1.06,1.2a1.145,1.145,0,0,0,1.249-1.032,1.113,1.113,0,0,0,0-.238V8.167h1Z" transform="translate(-173.277)" fill="#fff"/>
    <path id="Trazado_8977" data-name="Trazado 8977" d="M256.815,11.85a2.048,2.048,0,0,1-2.186,1.46,2.291,2.291,0,0,1-2.352-2.231,2.111,2.111,0,0,1,.021-.373,2.326,2.326,0,0,1,2-2.616,2.263,2.263,0,0,1,.329-.021c1.4,0,2.251.959,2.251,2.544v.348h-3.563v.055a1.333,1.333,0,0,0,1.217,1.441c.042,0,.085.005.127.005a1.208,1.208,0,0,0,1.2-.612Zm-3.5-1.626h2.549a1.217,1.217,0,0,0-1.124-1.3,1.17,1.17,0,0,0-.118,0,1.29,1.29,0,0,0-1.307,1.274v.033" transform="translate(-173.277)" fill="#fff"/>
    <rect id="Rect치ngulo_2058" data-name="Rect치ngulo 2058" width="0.996" height="7.016" transform="translate(84.981 6.195)" fill="#fff"/>
    <path id="Trazado_8978" data-name="Trazado 8978" d="M260.64,10.687a2.39,2.39,0,1,1,4.759-.455,2.3,2.3,0,0,1,0,.455,2.391,2.391,0,1,1-4.759,0m3.735,0c0-1.094-.491-1.734-1.354-1.734s-1.352.64-1.352,1.734.487,1.737,1.352,1.737,1.354-.639,1.354-1.737" transform="translate(-173.277)" fill="#fff"/>
    <path id="Trazado_8979" data-name="Trazado 8979" d="M273.74,11.85a2.048,2.048,0,0,1-2.186,1.46,2.291,2.291,0,0,1-2.352-2.231,2.111,2.111,0,0,1,.021-.373,2.326,2.326,0,0,1,2-2.616,2.263,2.263,0,0,1,.329-.021c1.4,0,2.251.959,2.251,2.544v.348h-3.563v.055a1.333,1.333,0,0,0,1.217,1.441c.042,0,.085.005.127.005a1.21,1.21,0,0,0,1.2-.612Zm-3.5-1.626h2.549a1.217,1.217,0,0,0-1.124-1.3,1.169,1.169,0,0,0-.118,0,1.29,1.29,0,0,0-1.307,1.274Z" transform="translate(-173.277)" fill="#fff"/>
    <path id="Trazado_8980" data-name="Trazado 8980" d="M275.138,8.166h.959v.8h.074a1.509,1.509,0,0,1,1.506-.9,1.641,1.641,0,0,1,1.76,1.513,1.7,1.7,0,0,1-.013.363v3.267h-1V10.2c0-.811-.353-1.215-1.089-1.215a1.159,1.159,0,0,0-1.2,1.279v2.952h-1Z" transform="translate(-173.277)" fill="#fff"/>
    <path id="Trazado_8981" data-name="Trazado 8981" d="M287.969,11.85a2.048,2.048,0,0,1-2.186,1.46,2.291,2.291,0,0,1-2.352-2.231,2.111,2.111,0,0,1,.021-.373,2.324,2.324,0,0,1,2-2.616,2.272,2.272,0,0,1,.329-.021c1.4,0,2.252.959,2.252,2.544v.348h-3.563v.055a1.332,1.332,0,0,0,1.216,1.441c.042,0,.085.005.128.005a1.208,1.208,0,0,0,1.2-.612Zm-3.5-1.626h2.548a1.216,1.216,0,0,0-1.123-1.3c-.041,0-.08,0-.119,0a1.289,1.289,0,0,0-1.306,1.274Z" transform="translate(-173.277)" fill="#fff"/>
    <rect id="Rect치ngulo_2059" data-name="Rect치ngulo 2059" width="0.996" height="7.016" transform="translate(116.135 6.195)" fill="#fff"/>
  </g>
</svg>
