<svg xmlns="http://www.w3.org/2000/svg" xmlns:xlink="http://www.w3.org/1999/xlink" width="136" height="41" viewBox="0 0 136 41">
  <defs>
    <clipPath id="clip-path">
      <path id="Trazado_8931" data-name="Trazado 8931" d="M10.436,7.538a2,2,0,0,0-.463,1.4V31.059a2,2,0,0,0,.463,1.405l.073.072L22.9,20.147v-.292L10.509,7.466Z" fill="none"/>
    </clipPath>
    <linearGradient id="linear-gradient" x1="-0.112" y1="1.238" x2="-0.075" y2="1.238" gradientUnits="objectBoundingBox">
      <stop offset="0" stop-color="#00a0ff"/>
      <stop offset="0.007" stop-color="#00a1ff"/>
      <stop offset="0.26" stop-color="#00beff"/>
      <stop offset="0.512" stop-color="#00d2ff"/>
      <stop offset="0.76" stop-color="#00dfff"/>
      <stop offset="1" stop-color="#00e3ff"/>
    </linearGradient>
    <clipPath id="clip-path-2">
      <path id="Trazado_8932" data-name="Trazado 8932" d="M22.9,19.855v.292l4.129,4.132.094-.053,4.893-2.78c1.4-.8,1.4-2.095,0-2.889l-4.893-2.78-.093-.053Z" fill="none"/>
    </clipPath>
    <linearGradient id="linear-gradient-2" x1="-2.178" y1="2.838" x2="-2.083" y2="2.838" gradientUnits="objectBoundingBox">
      <stop offset="0" stop-color="#ffe000"/>
      <stop offset="0.409" stop-color="#ffbd00"/>
      <stop offset="0.775" stop-color="orange"/>
      <stop offset="1" stop-color="#ff9c00"/>
    </linearGradient>
    <clipPath id="clip-path-3">
      <path id="Trazado_8933" data-name="Trazado 8933" d="M10.436,32.464a1.626,1.626,0,0,0,2.078.061l14.608-8.3L22.9,20Z" fill="none"/>
    </clipPath>
    <linearGradient id="linear-gradient-3" x1="-0.394" y1="1.145" x2="-0.347" y2="1.145" gradientUnits="objectBoundingBox">
      <stop offset="0" stop-color="#ff3a44"/>
      <stop offset="1" stop-color="#c31162"/>
    </linearGradient>
    <clipPath id="clip-path-4">
      <path id="Trazado_8934" data-name="Trazado 8934" d="M10.436,7.538,22.9,20l4.223-4.224-14.608-8.3a2.3,2.3,0,0,0-1.121-.337,1.277,1.277,0,0,0-.957.4" fill="none"/>
    </clipPath>
    <linearGradient id="linear-gradient-4" x1="-0.399" y1="1.77" x2="-0.351" y2="1.77" gradientUnits="objectBoundingBox">
      <stop offset="0" stop-color="#32a071"/>
      <stop offset="0.068" stop-color="#2da771"/>
      <stop offset="0.476" stop-color="#15cf74"/>
      <stop offset="0.801" stop-color="#06e775"/>
      <stop offset="1" stop-color="#00f076"/>
    </linearGradient>
    <clipPath id="clip-path-5">
      <rect id="Rectángulo_2050" data-name="Rectángulo 2050" width="16.687" height="8.729" transform="translate(10.435 24.132)" fill="none"/>
    </clipPath>
    <clipPath id="clip-path-6">
      <rect id="Rectángulo_2051" data-name="Rectángulo 2051" width="0.537" height="1.551" transform="translate(9.972 30.913)" fill="none"/>
    </clipPath>
    <clipPath id="clip-path-7">
      <rect id="Rectángulo_2052" data-name="Rectángulo 2052" width="6.034" height="4.224" transform="translate(27.029 20.001)" fill="none"/>
    </clipPath>
    <clipPath id="clip-path-8">
      <rect id="Rectángulo_2053" data-name="Rectángulo 2053" width="23.09" height="12.861" transform="translate(9.972 7.141)" fill="none"/>
    </clipPath>
  </defs>
  <g id="btn_googleplay_white.svg" transform="translate(0.5 0.5)">
    <path id="Trazado_8929" data-name="Trazado 8929" d="M130,40H5a5.015,5.015,0,0,1-5-5V5A5.015,5.015,0,0,1,5,0H130a5.015,5.015,0,0,1,5,5V35a5.015,5.015,0,0,1-5,5" stroke="#a6a6a6" stroke-width="1"/>
    <path id="Trazado_8930" data-name="Trazado 8930" d="M68.136,21.752A4.253,4.253,0,1,0,72.4,26a4.192,4.192,0,0,0-4.269-4.253m0,6.831A2.585,2.585,0,1,1,70.536,26a2.461,2.461,0,0,1-2.4,2.578m-9.314-6.831A4.253,4.253,0,1,0,63.092,26a4.192,4.192,0,0,0-4.27-4.253m0,6.831A2.585,2.585,0,1,1,61.223,26a2.461,2.461,0,0,1-2.4,2.578M47.744,23.057v1.8h4.317a3.771,3.771,0,0,1-.982,2.272,4.424,4.424,0,0,1-3.335,1.321,4.8,4.8,0,0,1,0-9.6A4.6,4.6,0,0,1,51,20.141l1.273-1.273a6.3,6.3,0,0,0-4.527-1.821,6.606,6.606,0,1,0,0,13.211,6.036,6.036,0,0,0,4.607-1.853,5.962,5.962,0,0,0,1.563-4.221,5.836,5.836,0,0,0-.1-1.127Zm45.308,1.4a3.954,3.954,0,0,0-3.641-2.706A4.041,4.041,0,0,0,85.4,26a4.162,4.162,0,0,0,4.22,4.253,4.232,4.232,0,0,0,3.545-1.885l-1.45-.967a2.431,2.431,0,0,1-2.095,1.177,2.164,2.164,0,0,1-2.062-1.289l5.687-2.352Zm-5.8,1.418A2.333,2.333,0,0,1,89.475,23.4a1.647,1.647,0,0,1,1.579.9ZM82.628,30H84.5V17.5H82.628Zm-3.061-7.3H79.5a2.948,2.948,0,0,0-2.239-.95,4.257,4.257,0,0,0,0,8.506,2.9,2.9,0,0,0,2.239-.967h.064V29.9c0,1.627-.869,2.5-2.271,2.5a2.354,2.354,0,0,1-2.143-1.515l-1.627.677a4.053,4.053,0,0,0,3.77,2.513c2.191,0,4.044-1.289,4.044-4.43V22.009H79.567Zm-2.142,5.881a2.587,2.587,0,0,1,0-5.156A2.4,2.4,0,0,1,79.7,26.021a2.377,2.377,0,0,1-2.271,2.562M101.806,17.5H97.335V30H99.2V25.264h2.606a3.888,3.888,0,1,0,0-7.765m.048,6.025H99.2V19.239h2.654a2.143,2.143,0,1,1,0,4.285m11.532-1.8a3.5,3.5,0,0,0-3.33,1.914l1.657.691a1.769,1.769,0,0,1,1.705-.917,1.8,1.8,0,0,1,1.962,1.609v.128a4.131,4.131,0,0,0-1.946-.482c-1.785,0-3.6.981-3.6,2.814a2.889,2.889,0,0,0,3.1,2.751,2.633,2.633,0,0,0,2.381-1.223h.064v.965h1.8V25.187c0-2.22-1.656-3.458-3.795-3.458m-.225,6.851c-.612,0-1.464-.305-1.464-1.061,0-.965,1.061-1.335,1.978-1.335a3.329,3.329,0,0,1,1.7.418,2.262,2.262,0,0,1-2.219,1.978M123.743,22l-2.139,5.42h-.064L119.32,22h-2.01l3.329,7.575-1.9,4.214h1.946L125.818,22Zm-16.807,8H108.8V17.5h-1.866Z" fill="#fff"/>
    <g id="Grupo_4355" data-name="Grupo 4355">
      <g id="Grupo_4354" data-name="Grupo 4354" clip-path="url(#clip-path)">
        <rect id="Rectángulo_2046" data-name="Rectángulo 2046" width="26.867" height="26.867" transform="translate(-2.562 20.001) rotate(-45)" fill="url(#linear-gradient)"/>
      </g>
    </g>
    <g id="Grupo_4357" data-name="Grupo 4357">
      <g id="Grupo_4356" data-name="Grupo 4356" clip-path="url(#clip-path-2)">
        <rect id="Rectángulo_2047" data-name="Rectángulo 2047" width="10.514" height="8.555" transform="translate(22.899 15.724)" fill="url(#linear-gradient-2)"/>
      </g>
    </g>
    <g id="Grupo_4359" data-name="Grupo 4359">
      <g id="Grupo_4358" data-name="Grupo 4358" clip-path="url(#clip-path-3)">
        <rect id="Rectángulo_2048" data-name="Rectángulo 2048" width="20.999" height="20.999" transform="translate(3.93 26.507) rotate(-45)" fill="url(#linear-gradient-3)"/>
      </g>
    </g>
    <g id="Grupo_4361" data-name="Grupo 4361">
      <g id="Grupo_4360" data-name="Grupo 4360" clip-path="url(#clip-path-4)">
        <rect id="Rectángulo_2049" data-name="Rectángulo 2049" width="20.893" height="20.893" transform="translate(4.005 13.57) rotate(-45)" fill="url(#linear-gradient-4)"/>
      </g>
    </g>
    <g id="Grupo_4364" data-name="Grupo 4364" opacity="0.2" style="isolation: isolate">
      <g id="Grupo_4363" data-name="Grupo 4363">
        <g id="Grupo_4362" data-name="Grupo 4362" clip-path="url(#clip-path-5)">
          <path id="Trazado_8935" data-name="Trazado 8935" d="M27.029,24.132,12.514,32.379a1.665,1.665,0,0,1-2,.011l-.074.074.074.073h0a1.665,1.665,0,0,0,2-.011l14.608-8.3Z"/>
        </g>
      </g>
    </g>
    <g id="Grupo_4367" data-name="Grupo 4367" opacity="0.12" style="isolation: isolate">
      <g id="Grupo_4366" data-name="Grupo 4366">
        <g id="Grupo_4365" data-name="Grupo 4365" clip-path="url(#clip-path-6)">
          <path id="Trazado_8936" data-name="Trazado 8936" d="M10.435,32.318a2,2,0,0,1-.463-1.405v.146a2,2,0,0,0,.463,1.405l.074-.074Z"/>
        </g>
      </g>
    </g>
    <g id="Grupo_4370" data-name="Grupo 4370" opacity="0.12" style="isolation: isolate">
      <g id="Grupo_4369" data-name="Grupo 4369">
        <g id="Grupo_4368" data-name="Grupo 4368" clip-path="url(#clip-path-7)">
          <path id="Trazado_8937" data-name="Trazado 8937" d="M32.015,21.3l-4.986,2.833.093.093,4.893-2.78A1.753,1.753,0,0,0,33.063,20a1.861,1.861,0,0,1-1.048,1.3"/>
        </g>
      </g>
    </g>
    <g id="Grupo_4373" data-name="Grupo 4373" opacity="0.25" style="isolation: isolate">
      <g id="Grupo_4372" data-name="Grupo 4372">
        <g id="Grupo_4371" data-name="Grupo 4371" clip-path="url(#clip-path-8)">
          <path id="Trazado_8938" data-name="Trazado 8938" d="M12.513,7.623l19.5,11.08A1.858,1.858,0,0,1,33.062,20a1.753,1.753,0,0,0-1.048-1.444l-19.5-11.08c-1.4-.794-2.541-.135-2.541,1.466v.146c0-1.6,1.143-2.26,2.541-1.466" fill="#fff"/>
        </g>
      </g>
    </g>
    <path id="Trazado_8939" data-name="Trazado 8939" d="M41.28,13V7h1.835a2.982,2.982,0,0,1,2.213.834A2.939,2.939,0,0,1,46.157,10a2.935,2.935,0,0,1-.829,2.166A2.979,2.979,0,0,1,43.115,13Zm.771-.737h1.064a2.251,2.251,0,0,0,1.647-.595A2.229,2.229,0,0,0,45.369,10a2.231,2.231,0,0,0-.607-1.663,2.245,2.245,0,0,0-1.647-.6H42.051Z" fill="#fff"/>
    <path id="Trazado_8940" data-name="Trazado 8940" d="M41.28,13V7h1.835a2.982,2.982,0,0,1,2.213.834A2.939,2.939,0,0,1,46.157,10a2.935,2.935,0,0,1-.829,2.166A2.979,2.979,0,0,1,43.115,13Zm.771-.737h1.064a2.251,2.251,0,0,0,1.647-.595A2.229,2.229,0,0,0,45.369,10a2.231,2.231,0,0,0-.607-1.663,2.245,2.245,0,0,0-1.647-.6H42.051Z" fill="none" stroke="#fff" stroke-miterlimit="10" stroke-width="0.2"/>
    <rect id="Rectángulo_2054" data-name="Rectángulo 2054" width="0.771" height="6" transform="translate(47.238 7)" fill="#fff"/>
    <rect id="Rectángulo_2055" data-name="Rectángulo 2055" width="0.771" height="6" transform="translate(47.238 7)" fill="none" stroke="#fff" stroke-miterlimit="10" stroke-width="0.2"/>
    <path id="Trazado_8941" data-name="Trazado 8941" d="M51.076,13.134a2.233,2.233,0,0,1-1.277-.427,1.975,1.975,0,0,1-.818-1.2l.7-.284a1.606,1.606,0,0,0,.515.833,1.3,1.3,0,0,0,.876.34,1.4,1.4,0,0,0,.859-.264.844.844,0,0,0,.356-.717.917.917,0,0,0-.356-.775,3.7,3.7,0,0,0-1.127-.507A3.02,3.02,0,0,1,49.6,9.485a1.361,1.361,0,0,1-.411-1.018A1.488,1.488,0,0,1,49.7,7.344a1.875,1.875,0,0,1,1.332-.478,1.926,1.926,0,0,1,1.24.381,1.761,1.761,0,0,1,.62.834l-.7.293a1.047,1.047,0,0,0-.373-.528,1.311,1.311,0,0,0-1.525,0,.754.754,0,0,0-.315.616.7.7,0,0,0,.289.565,2.781,2.781,0,0,0,.851.415,7.1,7.1,0,0,1,.742.277,3.391,3.391,0,0,1,.6.356,1.421,1.421,0,0,1,.461.553,1.8,1.8,0,0,1,.155.767,1.654,1.654,0,0,1-.18.779,1.466,1.466,0,0,1-.478.545,2.378,2.378,0,0,1-.641.306,2.429,2.429,0,0,1-.7.1" fill="#fff"/>
    <path id="Trazado_8942" data-name="Trazado 8942" d="M51.076,13.134a2.233,2.233,0,0,1-1.277-.427,1.975,1.975,0,0,1-.818-1.2l.7-.284a1.606,1.606,0,0,0,.515.833,1.3,1.3,0,0,0,.876.34,1.4,1.4,0,0,0,.859-.264.844.844,0,0,0,.356-.717.917.917,0,0,0-.356-.775,3.7,3.7,0,0,0-1.127-.507A3.02,3.02,0,0,1,49.6,9.485a1.361,1.361,0,0,1-.411-1.018A1.488,1.488,0,0,1,49.7,7.344a1.875,1.875,0,0,1,1.332-.478,1.926,1.926,0,0,1,1.24.381,1.761,1.761,0,0,1,.62.834l-.7.293a1.047,1.047,0,0,0-.373-.528,1.311,1.311,0,0,0-1.525,0,.754.754,0,0,0-.315.616.7.7,0,0,0,.289.565,2.781,2.781,0,0,0,.851.415,7.1,7.1,0,0,1,.742.277,3.391,3.391,0,0,1,.6.356,1.421,1.421,0,0,1,.461.553,1.8,1.8,0,0,1,.155.767,1.654,1.654,0,0,1-.18.779,1.466,1.466,0,0,1-.478.545,2.378,2.378,0,0,1-.641.306A2.429,2.429,0,0,1,51.076,13.134Z" fill="none" stroke="#fff" stroke-miterlimit="10" stroke-width="0.2"/>
    <path id="Trazado_8943" data-name="Trazado 8943" d="M54.956,13h-.771V7H56.23a1.9,1.9,0,0,1,1.32.507,1.743,1.743,0,0,1,0,2.555,1.893,1.893,0,0,1-1.32.508H54.956Zm0-3.168h1.291a.994.994,0,0,0,.779-.326,1.032,1.032,0,0,0,0-1.441.992.992,0,0,0-.779-.328H54.956Z" fill="#fff"/>
    <path id="Trazado_8944" data-name="Trazado 8944" d="M54.956,13h-.771V7H56.23a1.9,1.9,0,0,1,1.32.507,1.743,1.743,0,0,1,0,2.555,1.893,1.893,0,0,1-1.32.508H54.956Zm0-3.168h1.291a.994.994,0,0,0,.779-.326,1.032,1.032,0,0,0,0-1.441.992.992,0,0,0-.779-.328H54.956Z" fill="none" stroke="#fff" stroke-miterlimit="10" stroke-width="0.2"/>
    <path id="Trazado_8945" data-name="Trazado 8945" d="M63.985,12.224a3.113,3.113,0,0,1-4.4,0A3.066,3.066,0,0,1,58.7,10a3.068,3.068,0,0,1,.884-2.225,3.1,3.1,0,0,1,4.4,0A3.067,3.067,0,0,1,64.869,10a3.07,3.07,0,0,1-.884,2.224m-3.83-.5a2.308,2.308,0,0,0,3.26,0A2.35,2.35,0,0,0,64.082,10a2.348,2.348,0,0,0-.667-1.722,2.306,2.306,0,0,0-3.26,0A2.352,2.352,0,0,0,59.489,10a2.353,2.353,0,0,0,.666,1.722" fill="#fff"/>
    <path id="Trazado_8946" data-name="Trazado 8946" d="M63.985,12.224a3.113,3.113,0,0,1-4.4,0A3.066,3.066,0,0,1,58.7,10a3.068,3.068,0,0,1,.884-2.225,3.1,3.1,0,0,1,4.4,0A3.067,3.067,0,0,1,64.869,10,3.07,3.07,0,0,1,63.985,12.224Zm-3.83-.5a2.308,2.308,0,0,0,3.26,0A2.35,2.35,0,0,0,64.082,10a2.348,2.348,0,0,0-.667-1.722,2.306,2.306,0,0,0-3.26,0A2.352,2.352,0,0,0,59.489,10,2.353,2.353,0,0,0,60.155,11.722Z" fill="none" stroke="#fff" stroke-miterlimit="10" stroke-width="0.2"/>
    <path id="Trazado_8947" data-name="Trazado 8947" d="M65.951,13V7h.938l2.916,4.668h.034l-.034-1.157V7h.772v6h-.805L66.721,8.106h-.033l.033,1.157V13Z" fill="#fff"/>
    <path id="Trazado_8948" data-name="Trazado 8948" d="M65.951,13V7h.938l2.916,4.668h.034l-.034-1.157V7h.772v6h-.805L66.721,8.106h-.033l.033,1.157V13Z" fill="none" stroke="#fff" stroke-miterlimit="10" stroke-width="0.2"/>
    <rect id="Rectángulo_2056" data-name="Rectángulo 2056" width="0.771" height="6" transform="translate(71.951 7)" fill="#fff"/>
    <rect id="Rectángulo_2057" data-name="Rectángulo 2057" width="0.771" height="6" transform="translate(71.951 7)" fill="none" stroke="#fff" stroke-miterlimit="10" stroke-width="0.2"/>
    <path id="Trazado_8949" data-name="Trazado 8949" d="M74.1,13V7h2.17a1.766,1.766,0,0,1,1.22.465A1.509,1.509,0,0,1,78,8.634a1.306,1.306,0,0,1-.223.755,1.393,1.393,0,0,1-.591.494v.033a1.529,1.529,0,0,1,.73.52,1.365,1.365,0,0,1,.285.855,1.575,1.575,0,0,1-.541,1.223A1.847,1.847,0,0,1,76.383,13Zm.771-3.427h1.4a.9.9,0,0,0,.7-.29.895.895,0,0,0,.007-1.26.859.859,0,0,0-.673-.285H74.866Zm0,2.69h1.551a.918.918,0,0,0,.72-.311.993.993,0,0,0,.277-.678,1.01,1.01,0,0,0-1.031-.981H74.866Z" fill="#fff"/>
    <path id="Trazado_8950" data-name="Trazado 8950" d="M74.1,13V7h2.17a1.766,1.766,0,0,1,1.22.465A1.509,1.509,0,0,1,78,8.634a1.306,1.306,0,0,1-.223.755,1.393,1.393,0,0,1-.591.494v.033a1.529,1.529,0,0,1,.73.52,1.365,1.365,0,0,1,.285.855,1.575,1.575,0,0,1-.541,1.223A1.847,1.847,0,0,1,76.383,13Zm.771-3.427h1.4a.9.9,0,0,0,.7-.29.895.895,0,0,0,.007-1.26.859.859,0,0,0-.673-.285H74.866Zm0,2.69h1.551a.918.918,0,0,0,.72-.311.993.993,0,0,0,.277-.678,1.01,1.01,0,0,0-1.031-.981H74.866Z" fill="none" stroke="#fff" stroke-miterlimit="10" stroke-width="0.2"/>
    <path id="Trazado_8951" data-name="Trazado 8951" d="M79.241,13V7h.77v5.263h2.6V13Z" fill="#fff"/>
    <path id="Trazado_8952" data-name="Trazado 8952" d="M79.241,13V7h.77v5.263h2.6V13Z" fill="none" stroke="#fff" stroke-miterlimit="10" stroke-width="0.2"/>
    <path id="Trazado_8953" data-name="Trazado 8953" d="M87.085,7.737H84.353v1.9h2.463v.721H84.353v1.9h2.732V13h-3.5V7h3.5Z" fill="#fff"/>
    <path id="Trazado_8954" data-name="Trazado 8954" d="M87.085,7.737H84.353v1.9h2.463v.721H84.353v1.9h2.732V13h-3.5V7h3.5Z" fill="none" stroke="#fff" stroke-miterlimit="10" stroke-width="0.2"/>
    <path id="Trazado_8955" data-name="Trazado 8955" d="M93.806,7.737H91.074v1.9h2.463v.721H91.074v1.9h2.732V13H90.3V7h3.5Z" fill="#fff"/>
    <path id="Trazado_8956" data-name="Trazado 8956" d="M93.806,7.737H91.074v1.9h2.463v.721H91.074v1.9h2.732V13H90.3V7h3.5Z" fill="none" stroke="#fff" stroke-miterlimit="10" stroke-width="0.2"/>
    <path id="Trazado_8957" data-name="Trazado 8957" d="M95.012,13V7h.939l2.916,4.668H98.9l-.033-1.157V7h.771v6h-.805l-3.05-4.894h-.034l.034,1.157V13Z" fill="#fff"/>
    <path id="Trazado_8958" data-name="Trazado 8958" d="M95.012,13V7h.939l2.916,4.668H98.9l-.033-1.157V7h.771v6h-.805l-3.05-4.894h-.034l.034,1.157V13Z" fill="none" stroke="#fff" stroke-miterlimit="10" stroke-width="0.2"/>
  </g>
</svg>
